<?xml version="1.0" encoding="UTF-8" standalone="no"?>
<!-- Created with Inkscape (http://www.inkscape.org/) -->

<svg
   width="210mm"
   height="297mm"
   viewBox="0 0 210 297"
   version="1.1"
   id="svg1568"
   sodipodi:docname="backup-icon.svg"
   inkscape:version="1.1.2 (0a00cf5339, 2022-02-04)"
   xmlns:inkscape="http://www.inkscape.org/namespaces/inkscape"
   xmlns:sodipodi="http://sodipodi.sourceforge.net/DTD/sodipodi-0.dtd"
   xmlns="http://www.w3.org/2000/svg"
   xmlns:svg="http://www.w3.org/2000/svg">
  <sodipodi:namedview
     id="namedview1570"
     pagecolor="#ffffff"
     bordercolor="#666666"
     borderopacity="1.0"
     inkscape:pageshadow="2"
     inkscape:pageopacity="0.0"
     inkscape:pagecheckerboard="0"
     inkscape:document-units="mm"
     showgrid="false"
     inkscape:zoom="0.26425487"
     inkscape:cx="-1273.3919"
     inkscape:cy="970.65382"
     inkscape:window-width="1920"
     inkscape:window-height="1020"
     inkscape:window-x="0"
     inkscape:window-y="0"
     inkscape:window-maximized="1"
     inkscape:current-layer="layer1" />
  <defs
     id="defs1565" />
  <g
     inkscape:label="Layer 1"
     inkscape:groupmode="layer"
     id="layer1">
    <path
       style="display:inline;fill:#b3b3b3;stroke-width:0.98629"
       d="m 157.86901,267.74763 c -10.63375,-2.86344 -18.13391,-7.89488 -24.01867,-16.11285 -12.22138,-17.06693 -9.69343,-40.15106 5.98667,-54.66808 7.74794,-7.1732 14.44336,-9.80747 26.16825,-10.29557 9.88027,-0.41136 16.95849,1.40199 23.8652,6.11386 l 3.75094,2.55896 0.33288,-2.24125 c 0.88765,-5.97359 8.81873,-8.87017 12.95683,-4.73207 2.79977,2.79981 3.19797,5.37682 2.82422,18.27903 -0.32468,11.20681 -0.40628,11.5725 -3.10071,13.88808 -2.60265,2.23667 -3.49484,2.37817 -14.99454,2.37817 -6.86045,0 -13.2821,-0.48065 -14.6306,-1.09505 -2.34485,-1.0684 -4.59348,-4.59385 -4.59348,-7.20183 0,-2.36453 4.01848,-6.45909 7.21264,-7.34923 l 3.1434,-0.87597 -4.8035,-2.19365 c -16.32314,-7.45438 -34.59922,3.51411 -35.8889,21.53892 -0.61552,8.60263 2.09144,15.31329 8.42631,20.88951 10.38474,9.14102 23.54831,8.91982 34.68086,-0.58276 3.79235,-3.23711 5.98399,-4.39042 8.34307,-4.39042 4.14339,0 7.48857,3.45447 7.48857,7.73329 0,6.36175 -13.3378,16.20198 -25.44556,18.77302 -6.7138,1.42563 -11.26731,1.31913 -17.70403,-0.41411 z M 72.800787,252.00699 c -15.89617,-1.94945 -22.24436,-3.23547 -34.0621,-6.90037 -12.80606,-3.97143 -21.784892,-9.33218 -25.80575,-15.4072 L 10.171313,225.52691 9.904446,159.06047 C 9.734425,116.71286 9.997636,91.25672 10.629885,88.90882 15.045012,72.51228 47.147757,61.34185 94.992357,59.55415 c 34.585543,-1.29225 66.341933,3.5026 85.954403,12.97819 9.9499,4.80722 15.00867,9.61351 16.95461,16.10838 0.78088,2.60638 1.14463,15.64022 1.14463,41.01443 v 37.1939 l -2.88301,2.88301 c -3.13736,3.13736 -4.63489,3.4598 -8.30415,1.78796 -3.16297,-1.44113 -4.59348,-4.80044 -4.59348,-10.78685 0,-2.68678 -0.16663,-4.88505 -0.37053,-4.88505 -0.20391,0 -2.75575,1.04651 -5.6712,2.32557 -33.82602,14.84025 -112.037163,14.91629 -145.445803,0.14128 -3.06804,-1.35682 -5.759034,-2.46697 -5.979979,-2.46697 -0.220942,0 -0.276671,5.21504 -0.123835,11.58894 l 0.277864,11.58891 4.51825,3.01971 c 11.666,7.79677 35.70348,12.65875 68.76578,13.90907 16.627623,0.62882 17.114753,0.70804 18.986103,3.08706 4.07428,5.17963 0.89764,11.47954 -6.33525,12.56419 -6.22524,0.93353 -38.420493,-1.26299 -51.641493,-3.52321 -9.34977,-1.59845 -23.93125,-5.72201 -33.06052,-9.34941 -1.583167,-0.62901 -1.726013,0.24752 -1.726013,10.59018 0,10.4348 0.165548,11.4273 2.219153,13.30506 9.4254,8.61833 40.6139,15.08166 72.775983,15.08166 h 13.92278 l 2.88302,2.88302 c 3.55776,3.55776 3.71929,7.21957 0.46208,10.47674 -2.38223,2.38223 -2.67743,2.41917 -18.492923,2.31394 -8.83964,-0.0589 -20.73228,-0.67848 -26.42813,-1.37698 z m 54.739173,-99.12763 c 25.8716,-2.37164 47.296,-8.46854 54.27212,-15.4447 1.10899,-1.10895 1.45328,-4.0981 1.45328,-12.61749 v -11.16424 l -6.76185,2.75176 c -8.27522,3.36762 -19.95601,6.34006 -33.67605,8.56964 -15.06843,2.4487 -61.232773,2.45806 -76.437563,0.0149 -13.2301,-2.12535 -28.78506,-6.11591 -35.75305,-9.17237 l -5.178023,-2.27126 0.01528,11.04149 c 0.0082,6.07282 0.34116,11.50671 0.739716,12.07529 4.539907,6.47709 28.645207,13.8028 52.998037,16.10637 12.79504,1.21028 35.755643,1.26254 48.328243,0.10997 z m 17.26009,-44.21273 C 166.7057,104.74679 184.5629,97.254503 182.82068,92.7144 181.13449,88.32021 165.85474,82.12482 148.79709,78.91903 104.99191,70.68637 44.313447,76.44342 28.761307,90.30783 l -3.79563,3.38368 2.45632,2.08629 c 6.46853,5.49409 21.13901,10.48964 38.50427,13.11137 15.56021,2.34925 16.35846,2.38809 42.874133,2.08704 19.62463,-0.22292 26.97232,-0.69421 35.99965,-2.30958 z"
       id="path1659" />
  </g>
</svg>
